<?xml version="1.0" standalone="no"?><!DOCTYPE svg PUBLIC "-//W3C//DTD SVG 1.1//EN" "http://www.w3.org/Graphics/SVG/1.1/DTD/svg11.dtd"><svg t="1579241517491" class="icon" viewBox="0 0 1024 1024" version="1.1" xmlns="http://www.w3.org/2000/svg" p-id="4676" xmlns:xlink="http://www.w3.org/1999/xlink" width="48" height="48"><defs><style type="text/css"></style></defs><path d="M261.7 537.2h0.3c13.8 0 25-11.2 25-25s-11.2-25-25-25c-17.3 0-33.9-8.9-46.8-25-14.2-17.8-22-41.7-22-67.4 0-25.7 7.8-49.7 22-67.4 12.9-16.1 29.5-25 46.8-25 13.8 0 25-11.2 25-25s-11.2-25-25-25c-32.8 0-63.3 15.6-85.9 43.8-21.2 26.6-32.9 61.6-32.9 98.6s11.7 72 32.9 98.6c3.2 4.1 6.7 7.9 10.2 11.4-1.8 0.9-3.6 1.8-5.3 2.7-24.1 12.8-45.7 30.9-64 53.9-36.9 46.2-57.3 107.4-57.3 172.2 0 13.8 11.2 25 25 25s25-11.2 25-25c0-108.3 68.1-196.4 151.9-196.4h0.1zM907 561.5c-18.4-23-39.9-41.2-64-53.9-1.8-0.9-3.5-1.8-5.3-2.7 3.6-3.5 7-7.3 10.2-11.4 21.2-26.6 32.9-61.6 32.9-98.6s-11.7-72-32.9-98.6c-22.6-28.2-53-43.8-85.9-43.8-13.8 0-25 11.2-25 25s11.2 25 25 25c17.3 0 33.9 8.9 46.8 25 14.2 17.8 22 41.7 22 67.4 0 25.7-7.8 49.7-22 67.4-12.9 16.1-29.5 25-46.8 25-13.8 0-25 11.2-25 25s11.2 25 25 25h0.4c83.7 0 151.9 88.1 151.9 196.4 0 13.8 11.2 25 25 25s25-11.2 25-25c0-64.9-20.4-126-57.3-172.2z" p-id="4677" fill="#bfcbd9"></path><path d="M740.3 572.7c-34.2-34.1-74.8-59.4-119.2-74.8 45.9-32.4 76-85.9 76-146.3 0-98.7-80.3-178.9-178.9-178.9S339.3 253 339.3 351.6c0 60.2 29.9 113.5 75.6 146-44.7 15.3-85.6 40.8-120 75.1-59.4 59.3-92.2 138.1-92.5 222V826.4c0 13.8 11.2 25 25 25h580.5c13.8 0 25-11.2 25-25v-31.1-0.7c-0.4-83.9-33.2-162.7-92.6-221.9z m-351-221.1c0-71.1 57.8-128.9 128.9-128.9 71.1 0 128.9 57.8 128.9 128.9s-57.8 128.9-128.9 128.9c-71 0-128.9-57.8-128.9-128.9z m393.6 449.8H252.3v-5.5-0.5c0.3-146 119.2-264.8 265.3-264.8 146 0 265 118.8 265.3 264.8v6z" p-id="4678" fill="#bfcbd9"></path></svg>