<?xml version="1.0" standalone="no"?><!DOCTYPE svg PUBLIC "-//W3C//DTD SVG 1.1//EN" "http://www.w3.org/Graphics/SVG/1.1/DTD/svg11.dtd"><svg t="1579085637422" class="icon" viewBox="0 0 1024 1024" version="1.1" xmlns="http://www.w3.org/2000/svg" p-id="2730" xmlns:xlink="http://www.w3.org/1999/xlink" width="32" height="32"><defs><style type="text/css"></style></defs><path d="M236.373333 512l45.226667 40.96a303.189333 303.189333 0 0 1-35.84-30.737067 150.596267 150.596267 0 0 1-9.386667-10.222933z m335.36 40.96l45.226667-40.96c-2.8672 3.413333-6.007467 6.826667-9.403733 10.24a299.7248 299.7248 0 0 1-35.822934 30.72z" fill="#bfcbd9" p-id="2731"></path><path d="M679.253333 955.733333H170.666667c-66.030933 0-102.4-36.369067-102.4-102.4V426.666667c0-35.072 9.949867-61.730133 29.576533-79.291734 14.216533-12.4928 33.041067-19.950933 56.183467-22.306133 3.6352-68.061867 30.395733-127.453867 79.650133-176.708267C286.839467 95.214933 351.761067 68.266667 426.666667 68.266667s139.8272 26.948267 192.9728 80.093866c49.066667 49.066667 75.810133 108.168533 79.616 175.906134H853.333333c66.030933 0 102.4 36.369067 102.4 102.4v256a16.930133 16.930133 0 0 1-4.727466 11.793066h-0.017067l-0.017067 0.034134-0.017066 0.017066-0.034134 0.034134-0.034133 0.034133-0.017067 0.017067-0.017066 0.017066-0.017067 0.017067-0.017067 0.017067-0.017066 0.017066-0.017067 0.017067-0.034133 0.034133s0.034133 0.034133-0.034134 0.034134l-0.017066 0.017066-0.017067 0.017067-0.017067 0.017067-0.017066 0.017066-259.413334 256-0.3584 0.3584h-0.017066l-0.017067 0.017067-0.034133 0.034133a17.117867 17.117867 0 0 1-11.502934 4.5056H679.253333zM154.129067 359.424c-14.301867 1.8944-25.582933 6.4-33.6384 13.5168C108.526933 383.624533 102.4 401.749333 102.4 426.666667v426.666666c0 47.223467 21.0432 68.266667 68.266667 68.266667h491.52v-153.6c0-66.030933 36.369067-102.4 102.4-102.4H921.6V426.666667c0-47.223467-21.0432-68.266667-68.266667-68.266667h-154.077866c-3.5328 62.890667-26.862933 118.272-69.444267 164.864-3.106133 3.6864-6.485333 7.355733-10.154667 11.025067a314.0608 314.0608 0 0 1-37.102933 31.8976l-144.503467 129.194666a17.0496 17.0496 0 0 1-22.749866 0l-144.4352-129.1264a321.774933 321.774933 0 0 1-37.154134-31.9488 174.165333 174.165333 0 0 1-10.257066-11.1616l-0.2048-0.238933c-42.0352-45.841067-65.3824-100.9152-69.12-163.4816zM764.586667 699.733333c-47.223467 0-68.266667 21.0432-68.266667 68.266667v129.8432L897.058133 699.733333H764.586667z m-471.415467-159.317333L426.666667 659.7632l133.2224-119.108267a7.6288 7.6288 0 0 0 0.375466-0.3584l44.6464-40.430933C645.751467 455.082667 665.6 403.2 665.6 341.333333c0-66.4576-22.9376-121.668267-70.0928-168.840533S493.124267 102.4 426.666667 102.4s-121.668267 22.920533-168.840534 70.0928S187.733333 274.875733 187.733333 341.333333c0 61.883733 19.8656 113.7664 60.689067 158.5664l44.4928 40.2944 0.256 0.221867zM426.666667 443.733333c-21.623467 0-41.216-5.870933-58.248534-17.4592a17.681067 17.681067 0 0 1-2.0992-1.672533l-14.506666-13.653333C333.2608 390.997333 324.266667 367.854933 324.266667 341.333333c0-27.8016 9.949867-52.1728 29.5424-72.448l0.392533-0.392533C374.493867 248.8832 398.865067 238.933333 426.666667 238.933333s52.1728 9.949867 72.448 29.5424C519.1168 289.160533 529.066667 313.531733 529.066667 341.333333c0 26.5216-8.994133 49.664-26.743467 68.778667l-15.325867 14.472533a15.3088 15.3088 0 0 1-2.0992 1.672534C467.882667 437.8624 448.290133 443.733333 426.666667 443.733333z m-37.9904-44.987733c11.144533 7.304533 23.586133 10.8544 37.9904 10.8544 14.3872 0 26.8288-3.549867 37.9904-10.837333l13.482666-12.680534c11.025067-11.963733 16.7936-26.88 16.7936-44.7488 0-18.8928-6.519467-34.850133-19.950933-48.708266C461.5168 279.586133 445.559467 273.066667 426.666667 273.066667c-18.807467 0-34.679467 6.4512-48.520534 19.746133C364.8512 306.653867 358.4 322.525867 358.4 341.333333c0 17.8688 5.768533 32.785067 17.629867 45.568l12.6464 11.844267z" p-id="2732" fill="#bfcbd9"></path></svg>