<?xml version="1.0" standalone="no"?><!DOCTYPE svg PUBLIC "-//W3C//DTD SVG 1.1//EN" "http://www.w3.org/Graphics/SVG/1.1/DTD/svg11.dtd"><svg t="1579158121156" class="icon" viewBox="0 0 1057 1024" version="1.1" xmlns="http://www.w3.org/2000/svg" p-id="1544" xmlns:xlink="http://www.w3.org/1999/xlink" width="33.03125" height="32"><defs><style type="text/css"></style></defs><path d="M553.63360297 463.93188616a21.08250609 21.08250609 0 0 0 13.91445381-5.05980096l306.11798716-269.01277671v45.9598633a20.23920542 20.23920542 0 0 0 19.81755548 20.23920541 20.66085614 20.66085614 0 0 0 20.23920541-20.23920541V136.30974297A20.23920542 20.23920542 0 0 0 895.59184994 116.4921875h-101.61767858a19.81755547 19.81755547 0 1 0 0 39.63511093h54.39286543L558.27175398 411.64727127 382.02200378 190.7026084a20.66085614 20.66085614 0 0 0-28.67220832-3.79485112L145.4762865 336.17189974a21.08250609 21.08250609 0 0 0-5.05980096 29.515509 21.50415605 21.50415605 0 0 0 29.51550822 3.79485034l191.42915388-137.03628846 175.82810026 223.47456338a20.23920542 20.23920542 0 0 0 14.7577545 8.01135216zM213.78360575 426.82667572h-28.25055759a42.16501218 42.16501218 0 0 0-42.16501218 42.16501219v397.61606303h113.84553259V469.83498782a42.16501218 42.16501218 0 0 0-43.42996282-43.0083121z" p-id="1545" fill="#bfcbd9"></path><path d="M330.58068956 295.69348814a62.40421761 62.40421761 0 0 0-55.65781605 69.15061992v502.60694279H389.611706V364.84410807a64.51246813 64.51246813 0 0 0-59.03101644-69.15061993zM330.15903883 295.69348814h0.42165073-0.42165073zM463.8221269 449.59578239zM465.08707752 449.59578239a66.19906872 66.19906872 0 0 0-58.18771653 70.83721974v347.01804872h113.84553259V520.43300213A64.51246813 64.51246813 0 0 0 465.08707752 449.59578239zM726.08850206 388.03486469h0.42164996-0.42164996zM859.75159013 268.28623045zM784.69786856 570.18771655a168.66004798 168.66004798 0 1 0 168.66004798 168.66004797 168.66004798 168.66004798 0 0 0-168.66004798-168.66004797z m64.51246813 195.6456557a15.60105441 15.60105441 0 0 1 15.6010544 16.02270436 15.17940444 15.17940444 0 0 1-15.6010544 15.60105441h-48.48976378v29.93715893a16.02270435 16.02270435 0 0 1-16.02270435 16.02270436 15.60105441 15.60105441 0 0 1-16.02270435-15.60105439v-30.3588089h-48.48976379a15.17940444 15.17940444 0 0 1-15.60105441-15.60105441 15.60105441 15.60105441 0 0 1 15.60105441-16.02270436H769.09681415v-22.76910666h-48.91141373a15.60105441 15.60105441 0 0 1-15.60105441-16.02270435 15.17940444 15.17940444 0 0 1 15.60105441-15.60105441H769.09681415l-49.33306446-49.75471442a13.91445382 13.91445382 0 0 1-4.63815102-10.9629026 14.7577545 14.7577545 0 0 1 4.63815102-11.38455333 16.02270435 16.02270435 0 0 1 10.96290338-4.6381518 15.60105441 15.60105441 0 0 1 11.38455335 4.6381518l44.69491266 44.2732627 44.27326272-45.11656339a16.86600502 16.86600502 0 0 1 11.38455334-4.63815101 13.49280387 13.49280387 0 0 1 10.96290262 5.05980097 14.33610377 14.33610377 0 0 1 4.21650107 11.38455333 13.91445382 13.91445382 0 0 1-4.63815103 10.54125344l-51.01966426 50.17636436h47.22481316a16.02270435 16.02270435 0 0 1 0 32.04540871h-48.4897638v22.76910666zM802.82882344 334.06364922v191.85080461a210.82506017 210.82506017 0 0 1 113.8455326 45.95986329V334.06364922a61.13926775 61.13926775 0 0 0-55.65781606-65.77741877 62.82586755 62.82586755 0 0 0-58.18771654 65.77741877z" p-id="1546" fill="#bfcbd9"></path><path d="M652.72138108 567.23616534a42.16501218 42.16501218 0 0 0-42.1650122-42.16501142h-28.67220832a42.16501218 42.16501218 0 0 0-42.16501218 42.16501142v300.63653623h78.00527278a207.451859 207.451859 0 0 1 35.84025981-300.21488551zM670.85233595 458.02878452v99.93107877a206.6085591 206.6085591 0 0 1 113.84553261-34.15366V458.02878452A64.93411808 64.93411808 0 0 0 726.93180197 388.03486469c-33.31035934 0-56.079466 31.2021088-56.07946602 69.99391983z" p-id="1547" fill="#bfcbd9"></path></svg>